<?xml version="1.0" encoding="UTF-8" standalone="no"?>
<svg
   viewBox="0 0 256 256"
   version="1.1"
   id="svg2"
   sodipodi:docname="icon.svg"
   inkscape:version="1.4.2 (f4327f4, 2025-05-13)"
   inkscape:export-filename="icon.png"
   inkscape:export-xdpi="96"
   inkscape:export-ydpi="96"
   xml:space="preserve"
   xmlns:inkscape="http://www.inkscape.org/namespaces/inkscape"
   xmlns:sodipodi="http://sodipodi.sourceforge.net/DTD/sodipodi-0.dtd"
   xmlns="http://www.w3.org/2000/svg"
   xmlns:svg="http://www.w3.org/2000/svg"><defs
     id="defs2" /><sodipodi:namedview
     id="namedview2"
     pagecolor="#ffffff"
     bordercolor="#000000"
     borderopacity="0.25"
     inkscape:showpageshadow="2"
     inkscape:pageopacity="0.0"
     inkscape:pagecheckerboard="0"
     inkscape:deskcolor="#d1d1d1"
     showgrid="false"
     inkscape:zoom="2.56"
     inkscape:cx="127.73438"
     inkscape:cy="152.14844"
     inkscape:window-width="1920"
     inkscape:window-height="1009"
     inkscape:window-x="-8"
     inkscape:window-y="-8"
     inkscape:window-maximized="1"
     inkscape:current-layer="svg2"
     inkscape:export-bgcolor="#00000000"><inkscape:grid
       id="grid2"
       units="px"
       originx="0"
       originy="0"
       spacingx="1"
       spacingy="1"
       empcolor="#0099e5"
       empopacity="0.30196078"
       color="#0099e5"
       opacity="0.14901961"
       empspacing="5"
       enabled="true"
       visible="false" /></sodipodi:namedview><!-- Background --><rect
     style="display:inline;fill:#000000;fill-opacity:1;stroke:#4fc3f7;stroke-width:0;stroke-dasharray:none;stroke-opacity:1"
     id="rect2"
     width="245.14351"
     height="230.26672"
     x="5.4282455"
     y="12.866638"
     rx="40.77977" /><!-- Square spiral toolpath — 3 niveaux, sens horaire vers le centre --><!--
    Niveau 1 : (44,44) → (212,44) → (212,212) → (44,212) → (44,72)
    Niveau 2 : (184,72) → (184,184) → (72,184) → (72,100)
    Niveau 3 : (156,100) → (156,156) → (100,156) → (100,128) → centre (128,128)
    Pas de 28 px entre chaque niveau
  --><!-- Tête d'outil — position courante (centre) --><g
     id="g2"
     transform="rotate(-90,128,128)"><path
       d="M 70.76828,44 H 165.59108 212 V 212 H 44 V 72 H 184 V 184 H 72 v -84 h 84 v 56 h -56 v -28 h 11.18711"
       fill="none"
       stroke="#4fc3f7"
       stroke-width="13"
       stroke-linecap="round"
       stroke-linejoin="round"
       id="path1"
       style="display:inline;fill:#000000;fill-opacity:1;stroke:#4fc3f7;stroke-opacity:1"
       sodipodi:nodetypes="ccccccccccccccc" /><path
       id="circle1"
       d="M 128,110.5 A 17.5,17.5 0 0 0 110.5,128 17.5,17.5 0 0 0 128,145.5 17.5,17.5 0 0 0 145.5,128 17.5,17.5 0 0 0 128,110.5 Z m 0,8.75 a 8.75,8.75 0 0 1 8.75,8.75 8.75,8.75 0 0 1 -8.75,8.75 8.75,8.75 0 0 1 -8.75,-8.75 8.75,8.75 0 0 1 8.75,-8.75 z"
       style="fill:#4fc3f7;fill-opacity:1;stroke-width:0.875" /><circle
       style="fill:#ff6600;fill-opacity:1;stroke:#4fc3f7;stroke-width:0;stroke-dasharray:none;stroke-opacity:1"
       id="path2"
       cx="128"
       cy="-128"
       r="4"
       transform="rotate(90)" /></g></svg>
