<svg width="500" height="500" xmlns="http://www.w3.org/2000/svg" version="1.1" xml:space="preserve">
 <g>
  <title>Layer 1</title>
  <path d="m495.304,205.913l-45.519,0c-4.73,-18.267 -11.996,-35.493 -21.382,-51.291l33.961,-33.961c6.487,-6.491 6.516,-17.094 0,-23.611l-47.414,-47.417c-6.521,-6.521 -17.093,-6.521 -23.613,0l-33.959,33.961c-15.797,-9.385 -33.024,-16.649 -51.291,-21.382l0,-45.516c0,-9.219 -7.515,-16.696 -16.696,-16.696l-66.783,0c-9.18,0 -16.696,7.477 -16.696,16.696l0,45.517c-18.265,4.73 -35.493,11.992 -51.291,21.379l-33.959,-33.959c-6.521,-6.521 -17.093,-6.521 -23.613,0l-47.414,47.417c-6.521,6.52 -6.52,17.089 0,23.611l33.961,33.961c-9.385,15.799 -16.651,33.024 -21.382,51.291l-45.518,0c-9.181,0 -16.696,7.477 -16.696,16.696l0,66.783c0,9.214 7.482,16.693 16.696,16.693l45.519,0c4.73,18.267 11.996,35.493 21.382,51.291l-33.961,33.961c-6.521,6.52 -6.52,17.089 0,23.611l47.415,47.417c6.527,6.527 17.084,6.525 23.613,0l33.959,-33.959c15.797,9.387 33.026,16.647 51.291,21.379l0,45.519c0,9.214 7.482,16.696 16.696,16.696l66.783,0c9.157,0 16.696,-7.463 16.696,-16.696l0,-45.519c18.265,-4.73 35.493,-11.992 51.291,-21.379l33.959,33.959c6.527,6.527 17.084,6.525 23.613,0l47.415,-47.417c6.487,-6.491 6.516,-17.094 0,-23.611l-33.961,-33.961c9.385,-15.799 16.651,-33.024 21.382,-51.291l45.519,0c9.214,0 16.696,-7.48 16.696,-16.693l0,-66.783c-0.003,-9.162 -7.462,-16.696 -16.699,-16.696zm-239.304,133.563c-46.08,-0.029 -83.449,-37.396 -83.478,-83.476c0.029,-46.082 37.398,-83.449 83.478,-83.478c46.08,0.029 83.449,37.396 83.478,83.478c-0.029,46.08 -37.398,83.448 -83.478,83.476z" fill="#5c7cfa" id="svg_1"/>
  <path d="m339.478,256c-0.029,46.08 -37.398,83.448 -83.478,83.476l0,172.524l33.391,0c9.157,0 16.696,-7.463 16.696,-16.696l0,-45.519c18.265,-4.73 35.493,-11.992 51.291,-21.379l33.959,33.959c6.526,6.526 17.085,6.524 23.613,0l47.415,-47.417c6.487,-6.491 6.516,-17.095 0,-23.611l-33.961,-33.961c9.385,-15.799 16.651,-33.024 21.382,-51.291l45.519,0c9.214,0 16.696,-7.482 16.696,-16.693l0,-66.783c0,-9.161 -7.46,-16.696 -16.696,-16.696l-45.519,0c-4.73,-18.267 -11.996,-35.493 -21.382,-51.291l33.961,-33.961c6.487,-6.491 6.516,-17.095 0,-23.611l-47.415,-47.417c-6.521,-6.521 -17.093,-6.521 -23.613,0l-33.959,33.961c-15.797,-9.385 -33.024,-16.649 -51.291,-21.382l0,-45.516c0,-9.219 -7.516,-16.696 -16.696,-16.696l-33.391,0l0,172.522c46.08,0.029 83.449,37.396 83.478,83.478z" fill="#5c7cfa" id="svg_2"/>
 </g>

</svg>