<svg width="500" height="500" xmlns="http://www.w3.org/2000/svg" fill="#000000" version="1.1" xml:space="preserve">
 <g>
  <title>Layer 1</title>
  <path d="m487.083,225.514l-75.08,-75.08l0,-86.73c0,-15.682 -12.708,-28.391 -28.413,-28.391c-15.669,0 -28.377,12.709 -28.377,28.391l0,29.941l-55.903,-55.905c-27.639,-27.624 -75.694,-27.575 -103.27,0.05l-187.728,187.724c-11.082,11.104 -11.082,29.071 0,40.158c11.087,11.101 29.089,11.101 40.172,0l187.71,-187.729c6.115,-6.083 16.893,-6.083 22.976,-0.018l187.742,187.747c5.567,5.551 12.825,8.312 20.081,8.312c7.271,0 14.541,-2.764 20.091,-8.312c11.086,-11.086 11.086,-29.053 -0.001,-40.158z" id="svg_1" fill="#d86b04"/>
  <path d="m257.561,131.836c-5.454,-5.451 -14.285,-5.451 -19.723,0l-165.126,165.077c-2.607,2.606 -4.085,6.164 -4.085,9.877l0,120.401c0,28.253 22.908,51.16 51.16,51.16l81.754,0l0,-126.61l92.299,0l0,126.61l81.755,0c28.251,0 51.159,-22.907 51.159,-51.159l0,-120.402c0,-3.713 -1.465,-7.271 -4.085,-9.877l-165.108,-165.077z" id="svg_2" fill="#ff7f00"/>
 </g>

</svg>