<?xml version="1.0" encoding="UTF-8" standalone="no"?>
<svg
   width="500"
   height="500"
   fill="none"
   version="1.1"
   id="svg24"
   sodipodi:docname="keyboard.svg"
   inkscape:version="1.4.2 (f4327f4, 2025-05-13)"
   xmlns:inkscape="http://www.inkscape.org/namespaces/inkscape"
   xmlns:sodipodi="http://sodipodi.sourceforge.net/DTD/sodipodi-0.dtd"
   xmlns="http://www.w3.org/2000/svg"
   xmlns:svg="http://www.w3.org/2000/svg">
  <defs
     id="defs24" />
  <sodipodi:namedview
     id="namedview24"
     pagecolor="#ffffff"
     bordercolor="#000000"
     borderopacity="0.25"
     inkscape:showpageshadow="2"
     inkscape:pageopacity="0.0"
     inkscape:pagecheckerboard="0"
     inkscape:deskcolor="#d1d1d1"
     inkscape:zoom="1.614"
     inkscape:cx="249.69021"
     inkscape:cy="250"
     inkscape:window-width="1920"
     inkscape:window-height="1009"
     inkscape:window-x="-8"
     inkscape:window-y="-8"
     inkscape:window-maximized="1"
     inkscape:current-layer="g24" />
  <!-- Contour du cadre
  <rect x="49.5" y="49.5" width="401" height="401" rx="14"
        fill="none" stroke="#4D4D4D" stroke-width="2"/>-->
  <!-- Partie supérieure du clavier -->
  <!-- Corps du clavier -->
  <rect
     x="23.9207"
     y="148.83118"
     width="452.1586"
     height="202.33765"
     rx="17.052376"
     fill="#cccccc"
     id="rect1"
     style="display:inline;fill:#5c7cfa;fill-opacity:1;stroke-width:1.62684" />
  <path
     d="m 469.28741,150.98553 c 0.27554,1.36757 0.42394,2.78245 0.42394,4.23385 v 162.06981 c 0,11.41596 -8.96461,20.67118 -20.02396,20.67118 H 37.576195 c -5.182201,0 -9.888366,-2.04942 -13.443781,-5.38342 1.892462,9.38482 9.947512,16.43753 19.600026,16.43753 h 412.11119 c 11.05936,0 20.02396,-9.2544 20.02396,-20.67127 v -162.0716 c 0,-6.06632 -2.54783,-11.5054 -6.58018,-15.28609 z"
     fill="#adadad"
     id="path2"
     style="display:inline;stroke-width:1.62684" />
  <!-- Touches -->
  <g
     fill="#4d4d4d"
     id="g24"
     transform="matrix(1.601162,0,0,1.6529234,-157.0274,-226.12542)">
    <rect
       x="357.10501"
       y="246.599"
       width="16.837"
       height="25.409527"
       rx="2.8800001"
       id="rect2"
       style="stroke-width:1.00082" />
    <rect
       x="357.10501"
       y="276.5"
       width="16.837"
       height="22.989571"
       rx="2.8800001"
       id="rect3"
       style="stroke-width:0.997585" />
    <rect
       x="333.466"
       y="246.599"
       width="16.224001"
       height="25.409527"
       rx="2.8800001"
       id="rect4"
       style="stroke-width:1.00082" />
    <rect
       x="333.466"
       y="276.5"
       width="16.224001"
       height="22.989571"
       rx="2.8800001"
       id="rect5"
       style="stroke-width:0.997585" />
    <rect
       x="333.466"
       y="305.345"
       width="16.224001"
       height="24.804537"
       rx="2.8800001"
       id="rect6"
       style="stroke-width:0.988851" />
    <rect
       x="357.10501"
       y="305.345"
       width="16.837"
       height="24.804537"
       rx="2.8800001"
       id="rect7"
       style="stroke-width:0.988851" />
    <rect
       x="165.608"
       y="249.367"
       width="20.047001"
       height="22.384583"
       rx="2.77"
       id="rect8"
       style="stroke-width:0.995245" />
    <rect
       x="182.123"
       y="276.5"
       width="20.047001"
       height="22.989571"
       rx="2.77"
       id="rect9"
       style="stroke-width:0.997585" />
    <rect
       x="165.608"
       y="305.345"
       width="20.047001"
       height="24.804537"
       rx="2.77"
       id="rect10"
       style="stroke-width:0.98895;stroke-dasharray:none" />
    <rect
       x="195.72501"
       y="249.367"
       width="20.047001"
       height="22.384583"
       rx="2.77"
       id="rect11"
       style="stroke-width:0.995245" />
    <rect
       x="212.24001"
       y="276.5"
       width="20.047001"
       height="22.989571"
       rx="2.77"
       id="rect12"
       style="stroke-width:0.997585" />
    <rect
       x="195.72501"
       y="305.345"
       width="50.162998"
       height="24.804537"
       rx="2.77"
       id="rect13"
       style="stroke-width:0.988851" />
    <rect
       x="242.356"
       y="276.5"
       width="20.047001"
       height="22.989571"
       rx="2.77"
       id="rect14"
       style="stroke-width:0.997585" />
    <rect
       x="225.841"
       y="249.367"
       width="20.046"
       height="22.384583"
       rx="2.77"
       id="rect15"
       style="stroke-width:0.995245" />
    <rect
       x="255.957"
       y="249.367"
       width="20.047001"
       height="22.384583"
       rx="2.77"
       id="rect16"
       style="stroke-width:0.995245" />
    <rect
       x="151.09203"
       y="276.5"
       width="20.047001"
       height="22.989571"
       rx="2.77"
       id="rect17"
       style="stroke-width:0.951987" />
    <rect
       x="282.58224"
       y="305.345"
       width="20.047001"
       height="24.804537"
       rx="2.77"
       id="rect18"
       style="stroke-width:0.988851" />
    <rect
       x="296.06567"
       y="246.599"
       width="18.709999"
       height="25.409527"
       rx="2.77"
       id="rect19"
       style="stroke-width:1.00082" />
    <rect
       x="286.073"
       y="276.5"
       width="32.310001"
       height="22.989571"
       rx="2.77"
       id="rect20"
       style="stroke-width:0.997585" />
    <rect
       x="308.90338"
       y="305.345"
       width="18.709999"
       height="24.804537"
       rx="2.77"
       id="rect21"
       style="stroke-width:0.988851" />
    <rect
       x="134.47301"
       y="249.367"
       width="21.065001"
       height="22.384583"
       rx="2.77"
       id="rect22"
       style="stroke-width:0.995245" />
    <rect
       x="134.47301"
       y="276.5"
       width="9.4069996"
       height="22.989571"
       rx="2.77"
       id="rect23"
       style="stroke-width:0.997585" />
    <rect
       x="134.47301"
       y="305.345"
       width="21.065001"
       height="24.804537"
       rx="2.77"
       id="rect24"
       style="display:inline;stroke-width:0.988851" />
  </g>
</svg>
