<svg width="500" height="500" xmlns="http://www.w3.org/2000/svg" version="1.1" xml:space="preserve">
 <g>
  <title>Layer 1</title>
  <g id="svg_12" stroke="null" transform="rotate(-115.395 255.996 255.996)">
   <path d="m376.36677,331.26912c-108.03499,0 -195.64565,-87.60888 -195.64565,-195.65989c0,-24.30663 4.43589,-47.55946 12.52979,-69.00198c-74.00927,27.89521 -126.65791,99.37325 -126.65791,183.14612c0,108.05101 87.59642,195.63141 195.66167,195.63141c83.75685,0 155.22064,-52.62193 183.14434,-126.65791c-21.47278,8.09212 -44.72206,12.54226 -69.03225,12.54226l0.00001,-0.00001z" fill="#646C77" id="svg_10" stroke="null"/>
   <path d="m300.13599,407.50168c-108.06525,0 -195.65989,-87.5804 -195.65989,-195.62963c0,-44.39097 14.7691,-85.30193 39.64713,-118.12077c-47.10021,35.73991 -77.52844,92.31 -77.52844,156.00031c0,108.05101 87.59642,195.63141 195.66167,195.63141c63.67607,0 120.23014,-30.42823 155.97183,-77.51242c-32.8224,24.86378 -73.73159,39.63111 -118.09229,39.63111l-0.00001,-0.00001z" fill="#434A54" id="svg_11" stroke="null"/>
  </g>
 </g>

</svg>