<svg width="511.984" height="511.984" xmlns="http://www.w3.org/2000/svg" xml:space="preserve" version="1.1">

 <g>
  <title>Layer 1</title>
  <g id="svg_1">
   <path id="svg_2" fill="#F6BB42" d="m255.992,85.333c-5.891,0 -10.656,-4.781 -10.656,-10.671l0,-63.998c0,-5.891 4.766,-10.664 10.656,-10.664c5.906,0 10.672,4.773 10.672,10.664l0,63.998c0,5.89 -4.766,10.671 -10.672,10.671z"/>
   <path id="svg_3" fill="#F6BB42" d="m255.992,511.984c0,0 0.016,0 0,0c-5.875,0 -10.656,-4.781 -10.656,-10.656l0,-63.997c0,-5.906 4.781,-10.688 10.672,-10.688l0,0c5.891,0 10.656,4.781 10.656,10.688l0,63.997c0,5.875 -4.766,10.656 -10.672,10.656z"/>
  </g>
  <g id="svg_4">
   <path id="svg_5" fill="#FFCE54" d="m135.324,135.316c-4.172,4.164 -10.922,4.164 -15.078,0l-45.264,-45.256c-4.156,-4.164 -4.156,-10.914 0,-15.078c4.172,-4.172 10.922,-4.172 15.094,0l45.248,45.248c4.172,4.164 4.172,10.922 0,15.086z"/>
   <path id="svg_6" fill="#FFCE54" d="m437.018,437.003l0,0c-4.172,4.172 -10.922,4.172 -15.094,0l-45.249,-45.25c-4.172,-4.172 -4.172,-10.921 0,-15.077l0,0c4.172,-4.172 10.922,-4.172 15.094,0l45.249,45.249c4.156,4.156 4.156,10.906 0,15.078z"/>
  </g>
  <g id="svg_7">
   <path id="svg_8" fill="#F6BB42" d="m85.342,255.992c0,5.891 -4.781,10.664 -10.672,10.664l-63.998,0c-5.891,0 -10.656,-4.773 -10.672,-10.664c0,-5.891 4.781,-10.664 10.672,-10.664l63.998,0c5.89,0 10.672,4.773 10.672,10.664z"/>
   <path id="svg_9" fill="#F6BB42" d="m511.984,255.992l0,0c0,5.891 -4.766,10.664 -10.656,10.664l-63.997,0c-5.891,0 -10.672,-4.773 -10.672,-10.664l0,0c0,-5.891 4.781,-10.664 10.672,-10.664l63.997,0c5.891,0 10.656,4.773 10.656,10.664z"/>
  </g>
  <g id="svg_10">
   <path id="svg_11" fill="#FFCE54" d="m135.324,376.676c4.172,4.156 4.172,10.905 0,15.077l-45.248,45.25c-4.172,4.172 -10.922,4.172 -15.094,0c-4.156,-4.172 -4.156,-10.922 0,-15.078l45.264,-45.249c4.156,-4.172 10.906,-4.172 15.078,0z"/>
   <path id="svg_12" fill="#FFCE54" d="m437.018,74.974c0,0.008 0,0 0,0c4.155,4.171 4.155,10.921 0,15.085l-45.265,45.256c-4.156,4.164 -10.906,4.164 -15.078,0l0,0c-4.172,-4.164 -4.172,-10.922 0,-15.086l45.249,-45.256c4.172,-4.163 10.922,-4.163 15.094,0.001z"/>
   <path id="svg_13" fill="#FFCE54" d="m255.992,394.643c-76.45,0 -138.651,-62.186 -138.651,-138.651c0,-76.458 62.201,-138.66 138.651,-138.66c76.467,0 138.668,62.202 138.668,138.66c0,76.466 -62.201,138.651 -138.668,138.651z"/>
  </g>
  <path id="svg_14" fill="#F6BB42" d="m255.992,106.661c-82.466,0 -149.323,66.857 -149.323,149.331c0,82.466 66.857,149.339 149.323,149.339c82.482,0 149.34,-66.873 149.34,-149.339c0,-82.474 -66.858,-149.331 -149.34,-149.331zm90.513,239.828c-24.171,24.187 -56.311,37.498 -90.513,37.498c-34.187,0 -66.326,-13.312 -90.497,-37.498c-24.171,-24.155 -37.499,-56.311 -37.499,-90.497s13.328,-66.334 37.499,-90.505c24.171,-24.178 56.311,-37.491 90.497,-37.491c34.202,0 66.342,13.313 90.513,37.491c24.171,24.171 37.483,56.319 37.483,90.505c0,34.187 -13.312,66.342 -37.483,90.497z"/>
 </g>
</svg>