<svg width="500" height="500" xmlns="http://www.w3.org/2000/svg" xml:space="preserve" version="1.1" fill="#000000">
 <g>
  <title>Layer 1</title>
  <path fill="#ff7f00" id="svg_3" d="m328.348,244.87l-267.131,0c-27.619,0 -50.087,22.468 -50.087,50.087l0,166.956c0,27.619 22.468,50.087 50.087,50.087l267.13,0c27.619,0 50.087,-22.468 50.087,-50.087l0,-166.956c0.001,-27.62 -22.467,-50.087 -50.086,-50.087zm-116.87,128.921l0,54.731c0,9.223 -7.479,16.696 -16.696,16.696c-9.217,0 -16.696,-7.473 -16.696,-16.696l0,-54.731c-9.932,-5.792 -16.696,-16.443 -16.696,-28.748c0,-18.413 14.978,-33.391 33.391,-33.391c18.413,0 33.391,14.978 33.391,33.391c0.002,12.305 -6.762,22.956 -16.694,28.748z"/>
  <path id="svg_6" d="m350.609,-1c-82.859,0 -150.261,67.408 -150.261,150.261l0,61.217l83.478,0l0,-61.217c0,-36.826 29.956,-66.783 66.783,-66.783s66.783,29.956 66.783,66.783l0,61.217l83.478,0l0,-61.217c0,-82.853 -67.403,-150.261 -150.261,-150.261z" fill="#d86b04"/>
 </g>
</svg>