<svg width="500" height="500" xmlns="http://www.w3.org/2000/svg" fill="#000">
 <g>
  <title>Layer 1</title>
  <path transform="rotate(45 166.113 333.887)" stroke="#bf0000" d="m234.79494,271.44825l0,-74.927l-37.463,0l0,74.927l-62.439,0l0,-74.927l-37.463,0l0,74.927l-37.463,0l0,43.707c0,52.135 37.793,95.58 87.415,104.458l0,51.64l37.463,0l0,-51.64c49.622,-8.876 87.415,-52.321 87.415,-104.458l0,-43.707l-37.465,0zm0,43.707c0,37.872 -30.811,68.683 -68.683,68.683s-68.683,-30.811 -68.683,-68.683l0,-6.244l137.366,0l0,6.244z" id="svg_2" fill="#e03131"/>
  <path transform="rotate(45 360.377 139.622)" stroke="#bf0000" d="m379.10875,91.35954l0,-51.64l-37.463,0l0,51.64c-49.622,8.876 -87.415,52.321 -87.415,104.458l0,43.707l212.293,0l0,-43.707c0,-52.136 -37.794,-95.581 -87.415,-104.458zm49.951,110.701l-137.366,0l0,-6.244c0,-37.872 30.811,-68.683 68.683,-68.683s68.683,30.811 68.683,68.683l0,6.244z" id="svg_3" fill="#e03131"/>
 </g>

</svg>